# xmcd CD database file
#
# Track frame offsets:
#	182
#	29205
#	54735
#	81282
#	108487
#	133032
#	160785
#	186012
#	213745
#	238662
#
# Disc length: 3553 seconds
#
# Revision: 0
# Processed by: cddbd v1.5.2PL0 Copyright (c) Steve Scherf et al.
# Submitted via: CDex 1.70beta2
#
DISCID=920ddf0a
DTITLE=Marjorie Kinnan Rawlings (Northsound) - Echoes of Everglades National Park
DYEAR=1995
DGENRE=New Age
TTITLE0=Black Water Blues
TTITLE1=Swampin'
TTITLE2=Into the Night
TTITLE3=Near Flamingo
TTITLE4=Big Cypress
TTITLE5=Gatorville
TTITLE6=Nightsounds
TTITLE7=Everglades Reflections
TTITLE8=Spirit of the Glades
TTITLE9=Forever Everglades
EXTD=YEAR: 1995
EXTT0=
EXTT1=
EXTT2=
EXTT3=
EXTT4=
EXTT5=
EXTT6=
EXTT7=
EXTT8=
EXTT9=
PLAYORDER=
